Coordinates
version=1
nRows=4
nColumns=124
inDegrees=yes

Units are S.I. units (second, meters, Newtons, ...)
If the header above contains a line with 'inDegrees', this indicates whether rotational values are in degrees (yes) or radians (no).

endheader 
time	pelvis_tilt	pelvis_list	pelvis_rotation	pelvis_tx	pelvis_ty	pelvis_tz	hip_flexion_l	hip_adduction_l	hip_rotation_l	hip_flexion_r	hip_adduction_r	hip_rotation_r	knee_angle_l	knee_angle_r	ankle_angle_l	ankle_angle_r	subtalar_angle_l	subtalar_angle_r	mtp_angle_l	mtp_angle_r	lumbar_extension	lumbar_bending	lumbar_rotation	arm_flex_l	arm_add_l	arm_rot_l	arm_flex_r	arm_add_r	arm_rot_r	elbow_flex_l	elbow_flex_r	glut_med1_l/activation	glut_med2_l/activation	glut_med3_l/activation	glut_min1_l/activation	glut_min2_l/activation	glut_min3_l/activation	semimem_l/activation	semiten_l/activation	bifemlh_l/activation	bifemsh_l/activation	sar_l/activation	add_long_l/activation	add_brev_l/activation	add_mag1_l/activation	add_mag2_l/activation	add_mag3_l/activation	tfl_l/activation	pect_l/activation	grac_l/activation	glut_max1_l/activation	glut_max2_l/activation	glut_max3_l/activation	iliacus_l/activation	psoas_l/activation	quad_fem_l/activation	gem_l/activation	peri_l/activation	rect_fem_l/activation	vas_med_l/activation	vas_int_l/activation	vas_lat_l/activation	med_gas_l/activation	lat_gas_l/activation	soleus_l/activation	tib_post_l/activation	flex_dig_l/activation	flex_hal_l/activation	tib_ant_l/activation	per_brev_l/activation	per_long_l/activation	per_tert_l/activation	ext_dig_l/activation	ext_hal_l/activation	ercspn_l/activation	intobl_l/activation	extobl_l/activation	glut_med1_r/activation	glut_med2_r/activation	glut_med3_r/activation	glut_min1_r/activation	glut_min2_r/activation	glut_min3_r/activation	semimem_r/activation	semiten_r/activation	bifemlh_r/activation	bifemsh_r/activation	sar_r/activation	add_long_r/activation	add_brev_r/activation	add_mag1_r/activation	add_mag2_r/activation	add_mag3_r/activation	tfl_r/activation	pect_r/activation	grac_r/activation	glut_max1_r/activation	glut_max2_r/activation	glut_max3_r/activation	iliacus_r/activation	psoas_r/activation	quad_fem_r/activation	gem_r/activation	peri_r/activation	rect_fem_r/activation	vas_med_r/activation	vas_int_r/activation	vas_lat_r/activation	med_gas_r/activation	lat_gas_r/activation	soleus_r/activation	tib_post_r/activation	flex_dig_r/activation	flex_hal_r/activation	tib_ant_r/activation	per_brev_r/activation	per_long_r/activation	per_tert_r/activation	ext_dig_r/activation	ext_hal_r/activation	ercspn_r/activation	intobl_r/activation	extobl_r/activation	
          0.00000000	          0.99699712	          7.80648779	        -16.45469439	          0.00000000	          1.00654978	          0.01193544	         19.48779075	          6.33849399	         -2.14309344	        -14.01553856	         -9.49180603	          6.80448200	         -7.43328233	         -0.78323840	         -3.69858612	         18.14250742	        -13.83200649	          2.59079663	          0.18001430	          9.49462875	         -3.78559361	         -1.59810688	         -0.30415036	         13.61707318	        -13.57226873	         14.29135071	         -0.86638224	        -13.48240422	         19.34891025	         18.76831832	         17.24379571	          0.07609550	          0.05000127	          0.05000139	          0.07596955	          0.05000833	          0.05000578	          0.05000619	          0.07609845	          0.22170580	          0.05000597	          0.05000244	          0.30106268	          0.48677014	          0.08818310	          0.10410836	          0.20267831	          0.05000570	          0.12975757	          0.22425131	          0.05000292	          0.05000195	          0.05000726	          0.11677389	          0.10770683	          0.05000038	          0.05000084	          0.05000093	          0.05308253	          0.23005575	          0.25035088	          0.05000883	          0.07609909	          0.07610308	          0.07609719	          0.31849343	          0.06649641	          0.05002958	          0.05000223	          0.07609791	          0.07609634	          0.05000209	          0.68715452	          0.58572490	          0.15213106	          0.39323980	          0.11581537	          0.08472767	          0.40827992	          0.24755087	          0.20360968	          0.26827006	          0.11637484	          0.05000245	          0.05000159	          0.05000178	          0.26305011	          0.26826870	          0.05000030	          0.05000098	          0.05000524	          0.05000628	          0.05000633	          0.40828508	          0.05000271	          0.05000271	          0.05002733	          0.05002822	          0.05001043	          0.75033146	          0.87673969	          0.25271893	          0.16104252	          0.31141042	          0.05791651	          0.05000237	          0.05000214	          0.05000256	          0.49725722	          0.49905499	          0.57600064	          0.60475651	          0.27786579	          0.35433671	          0.05000132	          0.06196318	          0.11096694	          0.05000289	          0.05000075	          0.05000219	          0.05000005	          0.05000008	          0.05000012	
          0.03131656	          0.94578143	          6.93642696	        -16.62377533	          0.02699170	          1.00086461	          0.01399360	         20.51454257	          5.77768864	         -1.58021663	        -14.70168020	         -8.84424502	          5.89056180	        -10.65116777	         -2.90820195	         -4.53501628	         18.86834069	        -14.61199281	          3.72234429	          0.20014992	         12.01292386	         -3.59509640	         -2.31647756	          0.00160798	         10.10912695	        -13.46968966	         17.91519203	         -1.50998730	        -13.50843932	         18.71105485	         14.33843842	         29.20233773	          0.05000145	          0.05000130	          0.05000180	          0.05000340	          0.05000282	          0.05000421	          0.05000086	          0.05000225	          0.25349307	          0.05000178	          0.05004166	          0.19781485	          0.31983491	          0.05879631	          0.06842031	          0.13317340	          0.05000408	          0.08526076	          0.14734612	          0.05000291	          0.05000236	          0.05000871	          0.07672761	          0.07609926	          0.07456663	          0.05000256	          0.05000540	          0.07611309	          0.23242992	          0.25836564	          0.05001654	          0.05000143	          0.05000430	          0.05000010	          0.43217648	          0.18297841	          0.05000088	          0.67299365	          0.05000068	          0.05000012	          0.45509767	          0.78727292	          0.82502783	          0.13207695	          0.32605293	          0.07609712	          0.05569595	          0.26826265	          0.16265612	          0.13378412	          0.17626907	          0.07647135	          0.05000072	          0.05000045	          0.05000051	          0.17283944	          0.17627000	          0.06093022	          0.05000114	          0.05000565	          0.05000558	          0.05000324	          0.26826614	          0.05493810	          0.05000423	          0.05001999	          0.05001501	          0.05000320	          0.60425297	          0.59477008	          0.19494350	          0.10583064	          0.20461476	          0.11581524	          0.05000102	          0.05000089	          0.05000131	          0.49553851	          0.53957705	          0.67107162	          0.63912492	          0.35250671	          0.44005682	          0.05000093	          0.05000880	          0.09472781	          0.05000187	          0.05000048	          0.05000157	          0.06691537	          0.05000003	          0.05000006	
          0.06263313	          0.95338879	          6.03239130	        -16.54688358	          0.05630904	          0.99581249	          0.01587807	         20.52598987	          5.49660114	         -0.67584846	        -15.28966901	         -8.13855152	          4.73687809	        -14.36855927	         -5.64589880	         -2.17509209	         19.04163337	        -15.56992093	          4.72047010	          0.31512940	         14.98999903	         -3.33321077	         -3.13097971	          0.34859054	          4.94750665	        -13.47158421	         19.25289391	         -3.12717441	        -13.71899731	         17.73168397	         13.52263322	         42.88311875	          0.38878416	          0.69233347	          0.66048257	          0.09415811	          0.20299456	          0.18721226	          0.11298860	          0.11351256	          0.24111238	          0.05000445	          0.05000385	          0.12997528	          0.21014920	          0.05000929	          0.05001131	          0.08751171	          0.05003765	          0.05602231	          0.09681489	          0.29254262	          0.46394403	          0.21589008	          0.05041440	          0.05000163	          0.09581504	          0.52625570	          0.67821668	          0.05001066	          0.38445364	          0.47138441	          0.05000630	          0.05000265	          0.05000600	          0.05000041	          0.55845422	          0.29723240	          0.16097431	          0.44219458	          0.05001520	          0.05000115	          0.29902470	          0.56164035	          0.54970621	          0.08678184	          0.21423490	          0.05000013	          0.05000555	          0.17626346	          0.10687500	          0.08790396	          0.11581883	          0.05024942	          0.09127319	          0.09111255	          0.13079283	          0.11356525	          0.11581949	          0.35612096	          0.15990504	          0.05003293	          0.05004149	          0.05035433	          0.17626575	          0.05001422	          0.12676403	          0.05002339	          0.05002730	          0.05891453	          0.39702758	          0.39079683	          0.16020556	          0.06954836	          0.13444342	          0.07609733	          0.05001477	          0.05001786	          0.05000984	          0.43524786	          0.51803275	          0.69670401	          0.64665015	          0.37611482	          0.47671115	          0.05000050	          0.05000126	          0.10302357	          0.05000079	          0.05000023	          0.05000082	          0.15957431	          0.05000006	          0.08461088	
          0.09394969	          1.01109446	          5.30799984	        -16.21509036	          0.08565421	          0.99416302	          0.01710662	         19.89924704	          5.53261143	          0.39371418	        -15.09408438	         -7.51525478	          3.39272074	        -17.13063633	         -9.71994693	          1.40201574	         17.94126622	        -16.44881584	          5.17572678	          1.16334747	         18.43072588	         -3.06644996	         -4.12113556	          0.72540856	         -0.89950500	        -13.48023907	         19.32546596	         -4.60927780	        -13.76301468	         17.07001083	         14.71540580	         56.10971149	          0.51664736	          0.90035587	          0.67524348	          0.06190102	          0.23278979	          0.18380847	          0.13117031	          0.13771488	          0.21959542	          0.05000179	          0.05000406	          0.08540095	          0.13807966	          0.05000828	          0.05001024	          0.09418098	          0.05000595	          0.05000269	          0.06361322	          0.37049871	          0.54750960	          0.27653231	          0.05000029	          0.05000037	          0.11581738	          0.34578035	          0.44563197	          0.05000053	          0.57302960	          0.67115030	          0.05007038	          0.05000118	          0.05000337	          0.05000029	          0.67994768	          0.38924596	          0.26945329	          0.29344911	          0.05000035	          0.05000015	          0.19647608	          0.38630435	          0.49125398	          0.05702050	          0.14076416	          0.05000011	          0.05000349	          0.11581492	          0.07022411	          0.05775828	          0.07609973	          0.05000701	          0.13706206	          0.15494915	          0.19933247	          0.07461891	          0.07610022	          0.42142102	          0.65468324	          0.16845717	          0.12362722	          0.13044862	          0.11581645	          0.08666526	          0.18774415	          0.05002189	          0.05002614	          0.08973939	          0.26086910	          0.25677518	          0.10526470	          0.05002444	          0.08833706	          0.05000082	          0.07609876	          0.07609876	          0.07609781	          0.28598209	          0.34040747	          0.58261837	          0.63761568	          0.38934281	          0.47810190	          0.05000055	          0.05000251	          0.07724570	          0.05000094	          0.05000028	          0.05000096	          0.19977748	          0.05000010	          0.06949184	
